<svg data-v-423bf9ae="" xmlns="http://www.w3.org/2000/svg" viewBox="0 0 213 45" class="iconLeft"><!----><!----><!----><g data-v-423bf9ae="" id="dfc20df5-25a6-44e4-9a8c-3f60fdb18ffe" fill="black" transform="matrix(4.243281654165035,0,0,4.243281654165035,131.70177528717412,3.3734065581906663)"><path d="M0.34 15.92L1.51 15.92L1.51 15.92Q1.68 15.92 1.82 15.78L1.82 15.78L1.82 15.78Q1.96 15.64 2.11 15.64L2.11 15.64L2.11 12.35L2.11 12.35Q2.11 11.62 2.04 10.93L2.04 10.93L2.04 10.93Q1.96 10.25 1.95 10.12L1.95 10.12L1.95 10.12Q1.82 9.21 1.82 8.78L1.82 8.78L1.82 8.78Q1.82 7.59 1.77 6.85L1.77 6.85L1.77 6.85Q1.72 6.10 1.51 5.52L1.51 5.52L1.51 4.31L1.51 4.31Q1.33 4.31 0.99 4.42L0.99 4.42L0.99 4.42Q0.71 4.51 0.62 4.51L0.62 4.51L0.62 4.51Q0.34 4.51 0.34 4.00L0.34 4.00L0.34 4.00Q0.34 3.89 0.40 3.83L0.40 3.83L0.40 3.83Q0.46 3.77 0.60 3.67L0.60 3.67L0.60 3.67Q0.83 3.54 0.94 3.43L0.94 3.43L1.23 3.12L1.23 3.12Q1.62 2.93 2.02 2.88L2.02 2.88L2.02 2.88Q2.42 2.83 3.02 2.83L3.02 2.83L3.02 2.83Q3.23 2.83 3.51 2.80L3.51 2.80L3.91 2.79L3.91 2.79Q4.19 2.79 4.54 2.84L4.54 2.84L4.54 2.84Q4.56 2.83 4.64 2.81L4.64 2.81L4.64 2.81Q4.72 2.79 4.80 2.83L4.80 2.83L4.80 2.83Q4.96 2.97 5.40 3.28L5.40 3.28L5.40 3.28Q5.49 3.35 5.68 3.48L5.68 3.48L5.68 3.48Q5.88 3.61 5.99 3.72L5.99 3.72L5.99 3.72Q6.40 3.91 6.65 4.27L6.65 4.27L6.65 4.27Q6.90 4.63 7.18 5.21L7.18 5.21L7.18 5.21Q7.56 5.98 7.76 6.55L7.76 6.55L7.76 6.55Q7.97 7.13 8.06 7.91L8.06 7.91L8.11 8.26L8.11 8.26Q8.12 8.36 8.18 8.83L8.18 8.83L8.18 8.83Q8.23 9.31 8.23 9.76L8.23 9.76L8.23 9.76Q8.23 10.50 8.06 11.16L8.06 11.16L8.06 11.16Q8.06 11.98 7.76 12.76L7.76 12.76L7.76 12.76Q7.45 13.54 7.06 14.13L7.06 14.13L7.06 14.13Q6.68 14.71 5.99 15.64L5.99 15.64L5.99 15.64Q5.84 15.71 5.53 15.90L5.53 15.90L5.53 15.90Q5.03 16.20 4.61 16.36L4.61 16.36L4.61 16.36Q4.19 16.52 3.60 16.52L3.60 16.52L3.02 16.52L3.02 16.52Q2.63 16.72 2.11 16.77L2.11 16.77L2.11 16.77Q1.60 16.81 0.94 16.81L0.94 16.81L0.94 16.81Q0.66 16.53 0.50 16.32L0.50 16.32L0.50 16.32Q0.34 16.11 0.34 15.92L0.34 15.92ZM3.60 3.72L3.60 3.72Q3.40 3.92 3.40 4.56L3.40 4.56L3.42 5.21L3.42 5.21Q3.42 5.91 3.46 6.45L3.46 6.45L3.46 6.45Q3.49 7.04 3.49 7.29L3.49 7.29L3.49 7.29Q3.49 7.56 3.54 8.18L3.54 8.18L3.54 8.18Q3.60 8.88 3.60 9.38L3.60 9.38L3.60 12.35L3.60 12.35Q3.60 12.63 3.67 12.92L3.67 12.92L3.67 12.92Q3.74 13.20 3.75 13.26L3.75 13.26L3.75 13.26Q3.91 13.80 3.91 14.13L3.91 14.13L3.91 14.13Q3.91 14.39 3.82 14.70L3.82 14.70L3.82 14.70Q3.77 14.95 3.77 15.02L3.77 15.02L3.77 15.02Q3.77 15.19 3.91 15.33L3.91 15.33L3.91 15.33Q4.05 15.33 4.35 15.19L4.35 15.19L4.35 15.19Q4.63 15.04 4.80 15.04L4.80 15.04L4.80 15.04Q4.80 14.90 4.87 14.83L4.87 14.83L4.87 14.83Q4.94 14.76 5.01 14.74L5.01 14.74L5.01 14.74Q5.08 14.73 5.11 14.73L5.11 14.73L5.11 14.73Q5.29 14.73 5.34 14.62L5.34 14.62L5.34 14.62Q5.39 14.50 5.39 14.43L5.39 14.43L5.39 14.43Q5.80 13.85 5.89 13.10L5.89 13.10L5.89 13.10Q5.99 12.35 5.99 11.16L5.99 11.16L5.99 11.16Q5.99 10.99 6.05 10.54L6.05 10.54L6.05 10.54Q6.12 9.84 6.12 9.66L6.12 9.66L6.12 9.66Q6.12 9.16 5.99 8.78L5.99 8.78L5.99 7.88L5.99 7.88Q5.94 7.59 5.81 6.82L5.81 6.82L5.81 6.82Q5.63 5.71 5.44 5.09L5.44 5.09L5.44 5.09Q5.25 4.47 4.80 4.00L4.80 4.00L4.80 4.00Q4.61 3.81 4.37 3.77L4.37 3.77L4.37 3.77Q4.13 3.72 3.60 3.72L3.60 3.72ZM14.94 5.08L14.94 5.08Q14.87 4.98 14.81 4.82L14.81 4.82L14.81 4.82Q14.80 4.72 14.80 4.51L14.80 4.51L14.80 4.51Q14.80 4.28 14.77 4.16L14.77 4.16L14.77 4.16Q14.74 4.03 14.64 3.95L14.64 3.95L14.64 3.95Q14.36 3.79 14.07 3.65L14.07 3.65L14.07 3.65Q13.43 3.65 12.94 3.70L12.94 3.70L12.94 3.70Q12.46 3.75 12.08 3.95L12.08 3.95L12.08 3.95Q11.93 4.09 11.88 4.30L11.88 4.30L11.88 4.30Q11.83 4.52 11.83 4.90L11.83 4.90L11.83 4.90Q11.83 5.56 11.80 6.26L11.80 6.26L11.79 7.07L11.79 7.07Q11.79 7.28 11.86 7.91L11.86 7.91L11.86 7.91Q11.91 8.33 11.91 8.50L11.91 8.50L11.91 8.50Q11.91 8.83 11.79 9.09L11.79 9.09L11.79 9.09Q11.98 9.25 12.43 9.30L12.43 9.30L12.43 9.30Q12.87 9.35 13.50 9.35L13.50 9.35L13.50 9.35Q13.50 9.00 13.54 8.76L13.54 8.76L13.54 8.76Q13.59 8.51 13.79 8.51L13.79 8.51L13.79 8.51Q14 8.51 14.07 8.55L14.07 8.55L14.07 8.55Q14.14 8.58 14.36 8.79L14.36 8.79L14.36 8.79Q14.29 8.93 14.29 9.10L14.29 9.10L14.29 9.10Q14.28 9.17 14.28 9.34L14.28 9.34L14.28 9.34Q14.28 9.63 14.32 9.95L14.32 9.95L14.32 9.95Q14.35 10.35 14.35 10.51L14.35 10.51L14.35 10.51Q14.35 10.79 14.29 10.94L14.29 10.94L14.29 10.94Q14.22 11.09 14.07 11.09L14.07 11.09L14.07 11.09Q14.03 11.06 13.89 10.98L13.89 10.98L13.89 10.98Q13.75 10.89 13.62 10.77L13.62 10.77L13.62 10.77Q13.50 10.64 13.50 10.51L13.50 10.51L13.50 10.22L12.08 10.22L12.08 10.22Q11.93 10.67 11.93 11.41L11.93 11.41L11.93 11.41Q11.93 11.89 11.97 12.35L11.97 12.35L11.97 12.35Q12.00 12.91 12.00 13.12L12.00 13.12L12.00 13.12Q12.00 13.17 12.04 14.64L12.04 14.64L12.04 14.64Q12.08 15.26 12.08 15.65L12.08 15.65L12.08 15.65Q12.66 15.85 13.11 15.89L13.11 15.89L13.11 15.89Q13.57 15.93 14.36 15.93L14.36 15.93L14.36 15.93Q14.57 15.83 14.62 15.64L14.62 15.64L14.62 15.64Q14.66 15.51 14.66 15.23L14.66 15.23L14.66 15.23Q14.66 14.94 14.71 14.78L14.71 14.78L14.71 14.78Q14.76 14.62 14.94 14.52L14.94 14.52L14.94 14.52Q15.32 14.52 15.41 14.90L15.41 14.90L15.41 14.90Q15.51 15.29 15.51 15.93L15.51 15.93L15.51 15.93Q15.51 16.13 15.38 16.30L15.38 16.30L15.38 16.30Q15.25 16.48 14.94 16.80L14.94 16.80L13.50 16.80L13.50 16.80Q12.07 16.80 11.07 16.75L11.07 16.75L11.07 16.75Q10.07 16.70 8.93 16.51L8.93 16.51L8.93 15.93L10.08 15.93L10.08 15.93Q10.21 15.19 10.21 14.31L10.21 14.31L10.21 14.31Q10.21 13.82 10.15 12.78L10.15 12.78L10.15 12.78Q10.08 11.87 10.08 11.09L10.08 11.09L10.08 10.51L10.08 7.64L10.08 6.51L10.08 3.95L8.93 3.95L8.93 3.37L8.93 3.37Q9.52 3.22 10.70 3.08L10.70 3.08L10.70 3.08Q11.82 2.94 12.36 2.80L12.36 2.80L15.22 2.80L15.22 2.80Q15.25 2.83 15.32 2.91L15.32 2.91L15.32 2.91Q15.39 2.98 15.45 3.12L15.45 3.12L15.45 3.12Q15.51 3.25 15.51 3.37L15.51 3.37L15.51 3.37Q15.51 3.54 15.58 3.85L15.58 3.85L15.58 3.85Q15.65 4.34 15.65 4.44L15.65 4.44L15.65 4.44Q15.65 4.75 15.50 4.91L15.50 4.91L15.50 4.91Q15.34 5.08 14.94 5.08L14.94 5.08ZM22.85 3.67L22.85 3.67Q22.85 3.77 22.90 3.83L22.90 3.83L22.90 3.83Q22.95 3.89 23.00 3.95L23.00 3.95L23.00 3.95Q23.16 4.07 23.16 4.23L23.16 4.23L23.16 4.23Q23.16 4.89 23.10 5.29L23.10 5.29L23.10 5.29Q23.04 5.68 22.85 5.68L22.85 5.68L22.85 5.68Q22.61 5.68 22.54 5.49L22.54 5.49L22.54 5.49Q22.47 5.29 22.43 4.87L22.43 4.87L22.43 4.87Q22.40 4.35 22.27 4.23L22.27 4.23L22.27 4.23Q21.63 4.02 21 4.02L21 4.02L21 4.02Q20.38 4.02 19.95 4.23L19.95 4.23L19.95 4.23Q19.77 4.41 19.50 4.97L19.50 4.97L19.50 4.97Q19.25 5.50 19.07 5.68L19.07 5.68L19.07 5.68Q19.07 5.75 19.01 5.92L19.01 5.92L19.01 5.92Q18.96 6.09 18.79 6.27L18.79 6.27L18.79 6.27Q18.58 7.07 18.53 7.76L18.53 7.76L18.53 7.76Q18.48 8.46 18.48 9.77L18.48 9.77L18.48 11.51L18.48 11.51Q19.12 15.16 20.52 15.89L20.52 15.89L20.52 15.89Q20.75 16.00 21.03 16.00L21.03 16.00L21.03 16.00Q21.31 16.00 21.60 15.90L21.60 15.90L21.60 15.90Q21.90 15.79 22.27 15.58L22.27 15.58L22.27 15.58Q22.39 15.37 22.40 15.11L22.40 15.11L22.40 15.11Q22.41 14.94 22.41 14.56L22.41 14.56L22.41 14.56Q22.41 14.20 22.43 13.96L22.43 13.96L22.43 13.96Q22.46 13.73 22.55 13.54L22.55 13.54L22.55 13.54Q22.79 13.54 22.92 13.59L22.92 13.59L22.92 13.59Q23.04 13.64 23.17 13.73L23.17 13.73L23.17 13.73Q23.18 13.75 23.26 13.80L23.26 13.80L23.26 13.80Q23.34 13.85 23.44 13.85L23.44 13.85L23.44 15.89L23.44 15.89Q23.04 16.83 21.45 16.83L21.45 16.83L21.45 16.83Q20.85 16.83 20.24 16.73L20.24 16.73L20.24 16.73Q19.63 16.63 18.79 16.45L18.79 16.45L18.79 16.45Q18.44 16.13 18.26 15.99L18.26 15.99L18.26 15.99Q17.85 15.67 17.58 15.39L17.58 15.39L17.58 15.39Q17.30 15.12 17.04 14.70L17.04 14.70L17.04 14.70Q16.90 14.04 16.74 13.47L16.74 13.47L16.74 13.47Q16.45 12.28 16.30 11.45L16.30 11.45L16.30 11.45Q16.16 10.61 16.16 9.77L16.16 9.77L16.16 9.77Q16.24 9.32 16.38 8.43L16.38 8.43L16.38 8.43Q16.55 7.39 16.69 6.71L16.69 6.71L16.69 6.71Q16.83 6.03 17.04 5.40L17.04 5.40L17.04 5.40Q17.15 5.28 17.29 5.00L17.29 5.00L17.29 5.00Q17.39 4.70 17.60 4.52L17.60 4.52L17.60 4.52Q18.10 3.81 18.95 3.30L18.95 3.30L18.95 3.30Q19.80 2.79 20.80 2.79L20.80 2.79L20.80 2.79Q21.17 2.90 21.42 2.95L21.42 2.95L21.42 2.95Q21.97 3.11 22.26 3.24L22.26 3.24L22.26 3.24Q22.55 3.37 22.85 3.67L22.85 3.67ZM29.86 9.02L29.86 9.02Q30.25 9.52 30.46 10.26L30.46 10.26L30.46 10.26Q30.67 11.00 30.77 11.78L30.77 11.78L30.77 11.78Q30.86 12.56 30.93 13.78L30.93 13.78L30.93 13.78Q31.01 15.19 31.09 15.82L31.09 15.82L31.09 15.82Q31.40 15.82 31.54 15.87L31.54 15.87L31.54 15.87Q31.68 15.92 31.68 16.11L31.68 16.11L31.68 16.11Q31.68 16.80 30.67 16.80L30.67 16.80L30.67 16.80Q30.38 16.80 29.60 16.70L29.60 16.70L29.60 16.70Q29.41 16.52 29.37 16.30L29.37 16.30L29.37 16.21L29.37 16.21Q29.37 16.11 29.46 15.72L29.46 15.72L29.46 15.72Q29.50 15.51 29.55 15.23L29.55 15.23L29.55 15.23Q29.60 14.94 29.60 14.63L29.60 14.63L29.60 14.63Q29.60 14.20 29.53 13.83L29.53 13.83L29.53 13.83Q29.46 13.38 29.46 12.70L29.46 12.70L29.46 12.70Q29.43 11.87 29.34 11.36L29.34 11.36L29.34 11.36Q29.26 10.85 28.94 10.40L28.94 10.40L28.77 10.15L28.77 10.15Q28.57 9.83 28.35 9.60L28.35 9.60L28.35 9.60Q28.35 9.48 28.29 9.41L28.29 9.41L28.29 9.41Q28.22 9.34 28.07 9.24L28.07 9.24L28.07 9.24Q27.87 9.13 27.75 9.02L27.75 9.02L27.75 9.02Q27.45 9.02 27.31 9.07L27.31 9.07L27.31 9.07Q27.16 9.11 27.16 9.30L27.16 9.30L27.16 9.30Q27.02 10.01 27.02 10.88L27.02 10.88L27.02 10.88Q27.02 11.48 27.10 12.54L27.10 12.54L27.10 12.54Q27.16 13.47 27.16 13.80L27.16 13.80L27.16 13.80Q27.16 14.42 27.21 14.82L27.21 14.82L27.21 14.82Q27.26 15.22 27.44 15.62L27.44 15.62L27.44 15.62Q27.44 15.72 27.52 15.79L27.52 15.79L27.52 15.79Q27.59 15.85 27.75 15.92L27.75 15.92L27.75 15.92Q27.89 15.99 27.96 16.04L27.96 16.04L27.96 16.04Q28.04 16.10 28.04 16.20L28.04 16.20L28.04 16.20Q28.04 16.25 28.04 16.42L28.04 16.42L28.04 16.42Q28.04 16.59 27.99 16.66L27.99 16.66L27.99 16.66Q27.93 16.73 27.79 16.73L27.79 16.73L27.79 16.73Q27.54 16.73 27.20 16.69L27.20 16.69L27.20 16.69Q27.08 16.69 26.80 16.67L26.80 16.67L26.80 16.67Q26.52 16.65 26.31 16.65L26.31 16.65L26.31 16.65Q25.68 16.65 25.35 16.81L25.35 16.81L25.35 16.81Q24.98 16.81 24.79 16.79L24.79 16.79L24.79 16.79Q24.61 16.76 24.46 16.63L24.46 16.63L24.46 16.63Q24.30 16.49 24.15 16.20L24.15 16.20L24.15 16.20Q24.36 16.02 24.56 15.97L24.56 15.97L24.56 15.97Q24.75 15.92 25.05 15.92L25.05 15.92L25.05 10.81L25.05 10.81Q25.05 10.67 25.07 10.48L25.07 10.48L25.07 10.48Q25.10 10.29 25.12 10.21L25.12 10.21L25.12 10.21Q25.19 9.88 25.19 9.62L25.19 9.62L25.19 9.62Q25.19 9.30 25.05 9.02L25.05 9.02L25.05 9.02Q25.05 8.82 25.09 8.65L25.09 8.65L25.09 8.65Q25.14 8.29 25.14 8.23L25.14 8.23L25.14 8.23Q25.17 7.76 25.17 7.55L25.17 7.55L25.17 7.55Q25.17 7.11 25.12 6.22L25.12 6.22L25.12 6.22Q25.10 6.05 25.07 5.54L25.07 5.54L25.07 5.54Q25.05 5.03 25.05 4.51L25.05 4.51L25.05 4.51Q24.57 4.51 24.26 4.40L24.26 4.40L24.26 4.40Q23.95 4.30 23.95 4.07L23.95 4.07L23.95 4.07Q23.95 3.64 24.09 3.45L24.09 3.45L24.09 3.45Q24.22 3.26 24.46 3.22L24.46 3.22L24.46 3.22Q24.71 3.18 25.26 3.18L25.26 3.18L25.26 3.18Q25.41 3.18 25.61 3.09L25.61 3.09L25.61 3.09Q25.77 3.01 25.93 3.01L25.93 3.01L25.93 3.01Q26.77 2.87 27.55 2.87L27.55 2.87L27.55 2.87Q28.78 2.87 29.66 3.25L29.66 3.25L29.66 3.25Q30.53 3.63 30.74 4.51L30.74 4.51L30.74 4.51Q30.93 5.24 30.93 5.85L30.93 5.85L30.93 5.85Q30.93 6.47 30.74 6.90L30.74 6.90L30.74 6.90Q30.63 7.18 30.37 7.52L30.37 7.52L30.37 7.52Q30.11 7.85 29.86 8.11L29.86 8.11L29.55 8.41L29.55 8.41Q29.55 8.58 29.71 8.71L29.71 8.71L29.71 8.71Q29.86 8.86 29.86 9.02L29.86 9.02ZM26.88 3.93L26.88 3.93Q26.88 5.31 26.99 7.63L26.99 7.63L26.99 7.63Q26.99 7.78 27.23 7.78L27.23 7.78L27.23 7.78Q27.52 7.78 28 7.59L28 7.59L28 7.59Q28.48 7.39 28.66 7.21L28.66 7.21L28.66 7.21Q28.66 7.04 28.80 6.57L28.80 6.57L28.80 6.57Q28.91 6.22 28.94 6.02L28.94 6.02L28.94 6.02Q28.99 5.73 28.99 5.54L28.99 5.54L28.99 5.54Q28.99 5.40 28.97 5.22L28.97 5.22L28.97 5.22Q28.94 5.04 28.94 4.82L28.94 4.82L28.94 4.82Q28.94 4.56 28.83 4.40L28.83 4.40L28.83 4.40Q28.71 4.24 28.56 4.10L28.56 4.10L28.56 4.10Q28.41 3.96 28.35 3.91L28.35 3.91L26.88 3.93ZM40.24 2.91L40.24 2.91Q40.24 3.25 40.19 3.48L40.19 3.48L40.19 3.48Q40.15 3.71 39.98 3.71L39.98 3.71L39.16 3.71L39.16 3.71Q39.05 4.06 38.63 5.53L38.63 5.53L38.63 5.53Q38.35 6.61 38.11 7.37L38.11 7.37L38.11 7.37Q37.88 8.13 37.56 8.79L37.56 8.79L37.56 8.79Q37.37 8.99 37.30 9.21L37.30 9.21L37.30 9.21Q37.23 9.42 37.23 9.73L37.23 9.73L37.24 10.21L37.24 10.21Q37.27 10.63 37.27 10.92L37.27 10.92L37.27 10.92Q37.20 11.05 37.20 11.33L37.20 11.33L37.20 11.33Q37.20 11.55 37.25 12.00L37.25 12.00L37.25 12.00Q37.27 12.11 37.28 12.25L37.28 12.25L37.28 12.25Q37.30 12.39 37.30 12.53L37.30 12.53L37.30 12.53Q37.30 12.77 37.27 13.36L37.27 13.36L37.27 13.36Q37.24 13.97 37.24 14.31L37.24 14.31L37.24 14.31Q37.24 15.41 37.56 15.74L37.56 15.74L37.56 15.74Q37.62 15.74 37.79 15.74L37.79 15.74L37.79 15.74Q37.97 15.75 38.13 15.81L38.13 15.81L38.13 15.81Q38.29 15.86 38.29 15.97L38.29 15.97L38.29 15.97Q38.30 16.03 38.35 16.19L38.35 16.19L38.35 16.19Q38.39 16.35 38.39 16.49L38.39 16.49L38.39 16.49Q38.39 16.73 38.25 16.77L38.25 16.77L38.25 16.77Q37.80 16.88 37.28 16.88L37.28 16.88L37.28 16.88Q36.97 16.88 36.47 16.83L36.47 16.83L36.47 16.83Q36.11 16.80 35.97 16.80L35.97 16.80L34.62 16.80L34.62 16.80Q34.44 16.62 34.44 16.41L34.44 16.41L34.44 16.41Q34.44 16.20 34.62 16.00L34.62 16.00L34.62 16.00Q34.73 15.90 34.87 15.89L34.87 15.89L34.87 15.89Q34.97 15.88 35.17 15.88L35.17 15.88L35.17 15.88Q35.38 15.88 35.50 15.86L35.50 15.86L35.50 15.86Q35.62 15.83 35.70 15.74L35.70 15.74L35.71 13.73L35.71 13.73Q35.71 11.73 35.45 10.33L35.45 10.33L35.45 10.33Q35.18 8.93 34.37 8.25L34.37 8.25L34.37 8.25Q34.17 7.66 33.73 6.69L33.73 6.69L33.57 6.37L33.57 6.37Q33.29 5.53 33.16 4.97L33.16 4.97L33.16 4.97Q33.03 4.41 33.03 3.71L33.03 3.71L33.03 3.71Q32.69 3.71 32.46 3.67L32.46 3.67L32.46 3.67Q32.23 3.63 32.23 3.46L32.23 3.46L32.23 3.46Q32.20 3.07 32.41 2.91L32.41 2.91L32.41 2.91Q32.62 2.74 33.00 2.74L33.00 2.74L33.00 2.74Q33.24 2.74 33.63 2.80L33.63 2.80L33.63 2.80Q33.88 2.84 34.08 2.84L34.08 2.84L34.08 2.84Q34.34 2.84 34.87 2.87L34.87 2.87L34.87 2.87Q35.29 2.91 35.70 2.91L35.70 2.91L35.70 2.91Q35.88 3.09 35.92 3.27L35.92 3.27L35.92 3.27Q35.97 3.44 35.97 3.71L35.97 3.71L35.97 3.71Q35.85 3.71 35.66 3.68L35.66 3.68L35.66 3.68Q35.46 3.64 35.34 3.64L35.34 3.64L35.34 3.64Q35.07 3.64 34.93 3.78L34.93 3.78L34.93 3.78Q35 4.02 35.01 4.36L35.01 4.36L35.01 4.36Q35.03 4.70 35.04 4.84L35.04 4.84L35.04 4.84Q35.06 5.03 35.13 5.43L35.13 5.43L35.13 5.43Q35.14 5.52 35.15 5.62L35.15 5.62L35.15 5.62Q35.17 5.73 35.17 5.85L35.17 5.85L35.17 5.85Q35.38 6.66 35.74 7.40L35.74 7.40L35.74 7.40Q36.11 8.13 36.50 8.53L36.50 8.53L36.50 8.53Q36.75 8.40 36.88 8.17L36.88 8.17L36.88 8.17Q37.02 7.94 37.20 7.48L37.20 7.48L37.20 7.48Q37.32 7.11 37.46 6.80L37.46 6.80L37.46 6.80Q37.76 6.19 37.93 5.40L37.93 5.40L37.93 5.40Q38.11 4.62 38.12 3.98L38.12 3.98L38.12 3.98Q38.12 3.85 38.03 3.79L38.03 3.79L38.03 3.79Q37.94 3.72 37.70 3.64L37.70 3.64L37.70 3.64Q37.45 3.56 37.29 3.46L37.29 3.46L37.29 3.46Q37.13 3.36 37.04 3.18L37.04 3.18L37.04 3.18Q37.04 2.84 37.94 2.84L37.94 2.84L37.94 2.84Q38.36 2.84 38.78 2.88L38.78 2.88L38.78 2.88Q39.26 2.91 39.44 2.91L39.44 2.91L39.44 2.91Q39.55 2.91 39.72 2.84L39.72 2.84L39.72 2.84Q39.89 2.79 39.98 2.79L39.98 2.79L39.98 2.79Q40.12 2.79 40.24 2.91L40.24 2.91ZM44.00 15.72L44.00 15.72Q44.49 15.72 44.80 15.84L44.80 15.84L44.80 15.84Q45.11 15.96 45.11 16.18L45.11 16.18L45.11 16.18Q45.11 16.37 44.88 16.60L44.88 16.60L44.88 16.60Q44.52 16.60 43.50 16.67L43.50 16.67L43.50 16.67Q42.77 16.73 42.46 16.73L42.46 16.73L42.46 16.73Q41.86 16.73 41.36 16.60L41.36 16.60L41.36 16.60Q41.33 16.58 41.26 16.49L41.26 16.49L41.26 16.49Q41.19 16.41 41.12 16.28L41.12 16.28L41.12 16.28Q41.05 16.16 41.05 16.02L41.05 16.02L41.05 16.02Q41.27 15.79 41.38 15.76L41.38 15.76L41.38 15.76Q41.50 15.72 41.93 15.72L41.93 15.72L41.93 15.72Q42.10 15.57 42.10 15.16L42.10 15.16L42.10 15.16Q42.10 15.01 42.07 14.70L42.07 14.70L42.07 14.70Q42.04 14.42 42.04 14.31L42.04 14.31L42.04 13.87L42.04 13.87Q42.04 12.56 42.08 11.45L42.08 11.45L42.08 11.45Q42.11 10.14 42.11 9.51L42.11 9.51L42.11 9.51Q42.11 9.14 42.13 8.95L42.13 8.95L42.14 8.12L42.14 8.12Q42.14 7.56 42.11 7.25L42.11 7.25L42.11 7.25Q42.08 6.89 42.08 6.78L42.08 6.78L42.08 6.72L42.08 6.72Q42.08 6.43 42.10 6.24L42.10 6.24L42.10 6.24Q42.13 5.61 42.11 5.03L42.11 5.03L42.13 4.58L42.13 4.58Q42.13 4.38 42.08 4.26L42.08 4.26L42.08 4.26Q42.04 4.14 41.92 4.10L41.92 4.10L41.92 4.10Q41.76 4.03 41.54 4.03L41.54 4.03L41.54 4.03Q41.38 4.02 41.29 3.99L41.29 3.99L41.29 3.99Q41.20 3.96 41.08 3.85L41.08 3.85L41.08 3.85Q40.80 3.70 40.80 3.54L40.80 3.54L40.80 3.54Q40.80 3.44 40.88 3.35L40.88 3.35L40.88 3.35Q40.96 3.25 41.08 3.14L41.08 3.14L41.08 3.14Q41.20 3.04 41.27 2.98L41.27 2.98L41.27 2.98Q42.35 2.79 43.95 2.79L43.95 2.79L45.46 2.80L45.46 2.80Q45.57 2.80 45.65 2.79L45.65 2.79L45.65 2.79Q45.72 2.77 45.78 2.77L45.78 2.77L45.78 2.77Q45.92 2.77 46.06 2.80L46.06 2.80L46.06 2.80Q46.87 2.93 47.52 3.88L47.52 3.88L47.52 3.88Q48.16 4.84 48.40 6.03L48.40 6.03L48.40 6.03Q48.40 6.92 48.35 7.45L48.35 7.45L48.35 7.45Q48.30 7.98 48.10 8.39L48.10 8.39L48.10 8.39Q47.95 8.85 47.62 9.23L47.62 9.23L47.62 9.23Q47.29 9.60 46.76 10.05L46.76 10.05L46.76 10.05Q46.34 10.43 46.34 10.43L46.34 10.43L46.34 10.43Q45.93 10.64 45.52 10.69L45.52 10.69L45.52 10.69Q45.11 10.74 44.30 10.74L44.30 10.74L44.30 10.74Q44.27 10.74 44.20 10.75L44.20 10.75L44.20 10.75Q44.14 10.77 44.07 10.84L44.07 10.84L44.07 10.84Q44.00 10.91 44.00 11.03L44.00 11.03L44.00 11.03Q43.99 11.16 43.99 11.44L43.99 11.44L43.99 11.44Q44.00 11.72 44.00 11.87L44.00 11.87L44.00 12.19L44.00 12.19Q44.00 12.71 43.93 13.37L43.93 13.37L43.93 13.37Q43.92 13.52 43.89 13.89L43.89 13.89L43.89 13.89Q43.86 14.25 43.86 14.55L43.86 14.55L43.86 14.55Q43.86 15.16 44.00 15.72L44.00 15.72ZM44.00 8.09L44.00 9.55L44.00 9.55Q44.13 9.69 44.32 9.76L44.32 9.76L44.32 9.76Q44.52 9.83 44.73 9.83L44.73 9.83L44.73 9.83Q44.97 9.83 45.14 9.73L45.14 9.73L45.14 9.73Q45.56 9.46 45.89 9.01L45.89 9.01L45.89 9.01Q46.23 8.55 46.34 8.09L46.34 8.09L46.34 8.09Q46.37 7.95 46.44 7.67L46.44 7.67L46.44 7.67Q46.52 7.38 46.54 7.09L46.54 7.09L46.54 7.09Q46.55 6.80 46.55 6.38L46.55 6.38L46.55 6.38Q46.55 5.74 46.41 5.09L46.41 5.09L46.41 5.09Q46.27 4.44 46.06 3.99L46.06 3.99L46.06 3.99Q45.95 3.99 45.82 3.94L45.82 3.94L45.82 3.94Q45.70 3.89 45.65 3.88L45.65 3.88L45.65 3.88Q45.26 3.68 44.88 3.68L44.88 3.68L44.00 3.68L44.00 3.68Q43.86 4.38 43.86 5.15L43.86 5.15L43.86 5.15Q43.86 5.53 43.89 5.99L43.89 5.99L43.89 5.99Q43.92 6.45 43.93 6.64L43.93 6.64L43.93 6.64Q44.00 7.45 44.00 8.09L44.00 8.09ZM56.18 5.45L56.18 5.45Q56.11 5.38 56.06 5.18L56.06 5.18L56.06 5.18Q56.04 5.07 56.04 4.83L56.04 4.83L56.04 4.83Q56.04 4.56 56.01 4.37L56.01 4.37L56.01 4.37Q55.99 4.17 55.89 3.98L55.89 3.98L55.89 3.98Q55.76 3.85 55.44 3.85L55.44 3.85L55.44 3.85Q55.16 3.85 54.78 3.92L54.78 3.92L54.78 3.92Q54.33 3.98 54.15 3.98L54.15 3.98L54.15 3.98Q54.03 4.23 54.03 4.65L54.03 4.65L54.03 4.65Q54.03 4.98 54.10 5.40L54.10 5.40L54.10 5.40Q54.15 5.85 54.15 6.03L54.15 6.03L54.15 11.55L54.15 13.90L54.15 14.49L54.15 14.49Q54.15 14.80 54.11 15.06L54.11 15.06L54.11 15.06Q54.08 15.37 54.08 15.53L54.08 15.53L54.08 15.53Q54.08 15.79 54.15 15.95L54.15 15.95L54.15 15.95Q54.18 16.02 54.26 16.04L54.26 16.04L54.26 16.04Q54.35 16.07 54.41 16.09L54.41 16.09L54.41 16.09Q54.47 16.10 54.50 16.10L54.50 16.10L54.50 16.10Q54.74 16.13 54.88 16.21L54.88 16.21L54.88 16.21Q55.02 16.28 55.02 16.52L55.02 16.52L55.02 16.52Q54.99 16.55 54.91 16.62L54.91 16.62L54.91 16.62Q54.82 16.69 54.69 16.75L54.69 16.75L54.69 16.75Q54.56 16.81 54.43 16.81L54.43 16.81L51.80 16.81L51.80 16.81Q51.60 16.81 51.55 16.67L51.55 16.67L51.55 16.67Q51.51 16.52 51.51 16.23L51.51 16.23L51.51 16.23Q51.66 16.23 51.94 16.09L51.94 16.09L51.94 16.09Q52.22 15.95 52.37 15.95L52.37 15.95L52.39 13.50L52.39 13.50Q52.39 12.74 52.37 12.43L52.37 12.43L52.37 12.43Q52.36 12.03 52.36 11.26L52.36 11.26L52.37 8.95L52.37 7.49L52.37 6.90L52.37 6.90Q52.37 5.81 52.32 5.19L52.32 5.19L52.32 5.19Q52.28 4.58 52.08 3.98L52.08 3.98L52.08 3.98Q51.74 3.88 51.35 3.88L51.35 3.88L51.28 3.88L51.28 3.88Q50.60 3.88 50.15 4.18L50.15 4.18L50.15 4.18Q49.71 4.48 49.71 5.10L49.71 5.10L49.71 5.10Q49.71 5.25 49.76 5.45L49.76 5.45L49.76 5.45Q49.74 5.47 49.65 5.52L49.65 5.52L49.65 5.52Q49.56 5.57 49.46 5.57L49.46 5.57L49.46 5.57Q49.31 5.57 49.18 5.45L49.18 5.45L49.18 5.45Q49.18 5.28 49.13 4.83L49.13 4.83L49.13 4.83Q49.06 4.20 49.06 4.06L49.06 4.06L49.06 4.06Q49.06 3.64 49.18 3.39L49.18 3.39L49.18 3.39Q49.67 3.14 50.12 3.01L50.12 3.01L50.12 3.01Q50.57 2.88 51.17 2.88L51.17 2.88L51.17 2.88Q51.60 2.88 52.61 2.86L52.61 2.86L52.61 2.86Q53.41 2.81 54.15 2.81L54.15 2.81L54.15 2.81Q55.19 2.81 55.88 2.91L55.88 2.91L55.88 2.91Q56.57 3.01 56.76 3.39L56.76 3.39L56.76 3.39Q56.94 3.91 56.94 4.40L56.94 4.40L56.94 4.40Q56.94 4.86 56.76 5.15L56.76 5.15L56.76 5.15Q56.57 5.45 56.18 5.45L56.18 5.45ZM60.14 3.85L60.14 3.85Q60.02 4.19 60.02 4.66L60.02 4.66L60.02 4.66Q60.02 5.04 60.09 5.50L60.09 5.50L60.09 5.50Q60.10 5.60 60.13 5.90L60.13 5.90L60.13 5.90Q60.16 6.20 60.14 6.44L60.14 6.44L60.14 6.44Q60.12 7.29 60.03 9.17L60.03 9.17L60.03 9.17Q59.96 10.77 59.91 12.49L59.91 12.49L59.91 12.49Q59.85 14.21 59.85 15.65L59.85 15.65L59.85 15.65Q59.99 15.79 60.30 15.95L60.30 15.95L60.30 15.95Q60.58 16.09 60.70 16.21L60.70 16.21L60.70 16.21Q60.70 16.34 60.65 16.40L60.65 16.40L60.65 16.40Q60.59 16.46 60.45 16.56L60.45 16.56L60.45 16.56Q60.28 16.66 60.14 16.80L60.14 16.80L60.14 16.80Q59.99 16.73 59.61 16.67L59.61 16.67L59.61 16.67Q59.42 16.66 58.95 16.66L58.95 16.66L58.95 16.66Q58.48 16.66 58.16 16.63L58.16 16.63L58.16 16.63Q57.85 16.60 57.55 16.51L57.55 16.51L57.55 16.51Q57.53 16.49 57.48 16.41L57.48 16.41L57.48 16.41Q57.43 16.32 57.43 16.21L57.43 16.21L57.43 16.21Q57.43 16.06 57.55 15.95L57.55 15.95L57.55 15.95Q57.55 15.85 57.60 15.83L57.60 15.83L57.60 15.83Q57.64 15.81 57.74 15.81L57.74 15.81L57.74 15.81Q57.86 15.81 57.92 15.79L57.92 15.79L57.92 15.79Q58.06 15.74 58.11 15.65L58.11 15.65L58.11 15.65Q58.24 15.53 58.24 15.29L58.24 15.29L58.24 15.29Q58.24 15.18 58.21 15.03L58.21 15.03L58.21 15.03Q58.18 14.88 58.17 14.83L58.17 14.83L58.17 14.83Q58.11 14.57 58.11 14.50L58.11 14.50L58.11 14.50Q58.11 14.07 58.14 13.23L58.14 13.23L58.16 12.00L58.16 12.00Q58.14 11.93 58.13 11.74L58.13 11.74L58.13 11.74Q58.11 11.55 58.11 11.33L58.11 11.33L58.11 8.74L58.11 3.85L58.11 3.85Q57.85 3.85 57.70 3.80L57.70 3.80L57.70 3.80Q57.55 3.75 57.55 3.56L57.55 3.56L57.55 2.98L57.55 2.98Q57.55 2.86 57.65 2.86L57.65 2.86L57.65 2.86Q57.69 2.86 57.93 2.92L57.93 2.92L57.93 2.92Q58.17 2.98 58.41 2.98L58.41 2.98L58.41 2.98Q58.56 2.98 59.07 2.93L59.07 2.93L59.07 2.93Q59.18 2.91 59.47 2.88L59.47 2.88L59.47 2.88Q59.77 2.86 59.99 2.86L59.99 2.86L59.99 2.86Q60.47 2.86 60.70 2.98L60.70 2.98L60.70 2.98Q60.82 3.09 60.82 3.26L60.82 3.26L60.82 3.26Q60.82 3.49 60.63 3.67L60.63 3.67L60.63 3.67Q60.44 3.85 60.14 3.85L60.14 3.85ZM61.45 15.92L62.62 15.92L62.62 15.92Q62.79 15.92 62.93 15.78L62.93 15.78L62.93 15.78Q63.07 15.64 63.22 15.64L63.22 15.64L63.22 12.35L63.22 12.35Q63.22 11.62 63.15 10.93L63.15 10.93L63.15 10.93Q63.07 10.25 63.06 10.12L63.06 10.12L63.06 10.12Q62.93 9.21 62.93 8.78L62.93 8.78L62.93 8.78Q62.93 7.59 62.88 6.85L62.88 6.85L62.88 6.85Q62.83 6.10 62.62 5.52L62.62 5.52L62.62 4.31L62.62 4.31Q62.44 4.31 62.10 4.42L62.10 4.42L62.10 4.42Q61.82 4.51 61.73 4.51L61.73 4.51L61.73 4.51Q61.45 4.51 61.45 4.00L61.45 4.00L61.45 4.00Q61.45 3.89 61.51 3.83L61.51 3.83L61.51 3.83Q61.57 3.77 61.71 3.67L61.71 3.67L61.71 3.67Q61.94 3.54 62.05 3.43L62.05 3.43L62.34 3.12L62.34 3.12Q62.73 2.93 63.13 2.88L63.13 2.88L63.13 2.88Q63.53 2.83 64.13 2.83L64.13 2.83L64.13 2.83Q64.34 2.83 64.62 2.80L64.62 2.80L65.02 2.79L65.02 2.79Q65.30 2.79 65.65 2.84L65.65 2.84L65.65 2.84Q65.67 2.83 65.75 2.81L65.75 2.81L65.75 2.81Q65.83 2.79 65.91 2.83L65.91 2.83L65.91 2.83Q66.07 2.97 66.51 3.28L66.51 3.28L66.51 3.28Q66.60 3.35 66.79 3.48L66.79 3.48L66.79 3.48Q66.99 3.61 67.10 3.72L67.10 3.72L67.10 3.72Q67.51 3.91 67.76 4.27L67.76 4.27L67.76 4.27Q68.01 4.63 68.29 5.21L68.29 5.21L68.29 5.21Q68.67 5.98 68.87 6.55L68.87 6.55L68.87 6.55Q69.08 7.13 69.17 7.91L69.17 7.91L69.22 8.26L69.22 8.26Q69.23 8.36 69.29 8.83L69.29 8.83L69.29 8.83Q69.34 9.31 69.34 9.76L69.34 9.76L69.34 9.76Q69.34 10.50 69.17 11.16L69.17 11.16L69.17 11.16Q69.17 11.98 68.87 12.76L68.87 12.76L68.87 12.76Q68.56 13.54 68.17 14.13L68.17 14.13L68.17 14.13Q67.79 14.71 67.10 15.64L67.10 15.64L67.10 15.64Q66.95 15.71 66.64 15.90L66.64 15.90L66.64 15.90Q66.14 16.20 65.72 16.36L65.72 16.36L65.72 16.36Q65.30 16.52 64.71 16.52L64.71 16.52L64.13 16.52L64.13 16.52Q63.74 16.72 63.22 16.77L63.22 16.77L63.22 16.77Q62.71 16.81 62.05 16.81L62.05 16.81L62.05 16.81Q61.77 16.53 61.61 16.32L61.61 16.32L61.61 16.32Q61.45 16.11 61.45 15.92L61.45 15.92ZM64.71 3.72L64.71 3.72Q64.51 3.92 64.51 4.56L64.51 4.56L64.53 5.21L64.53 5.21Q64.53 5.91 64.57 6.45L64.57 6.45L64.57 6.45Q64.60 7.04 64.60 7.29L64.60 7.29L64.60 7.29Q64.60 7.56 64.65 8.18L64.65 8.18L64.65 8.18Q64.71 8.88 64.71 9.38L64.71 9.38L64.71 12.35L64.71 12.35Q64.71 12.63 64.78 12.92L64.78 12.92L64.78 12.92Q64.85 13.20 64.86 13.26L64.86 13.26L64.86 13.26Q65.02 13.80 65.02 14.13L65.02 14.13L65.02 14.13Q65.02 14.39 64.93 14.70L64.93 14.70L64.93 14.70Q64.88 14.95 64.88 15.02L64.88 15.02L64.88 15.02Q64.88 15.19 65.02 15.33L65.02 15.33L65.02 15.33Q65.16 15.33 65.46 15.19L65.46 15.19L65.46 15.19Q65.74 15.04 65.91 15.04L65.91 15.04L65.91 15.04Q65.91 14.90 65.98 14.83L65.98 14.83L65.98 14.83Q66.05 14.76 66.12 14.74L66.12 14.74L66.12 14.74Q66.19 14.73 66.22 14.73L66.22 14.73L66.22 14.73Q66.40 14.73 66.45 14.62L66.45 14.62L66.45 14.62Q66.50 14.50 66.50 14.43L66.50 14.43L66.50 14.43Q66.91 13.85 67.00 13.10L67.00 13.10L67.00 13.10Q67.10 12.35 67.10 11.16L67.10 11.16L67.10 11.16Q67.10 10.99 67.16 10.54L67.16 10.54L67.16 10.54Q67.23 9.84 67.23 9.66L67.23 9.66L67.23 9.66Q67.23 9.16 67.10 8.78L67.10 8.78L67.10 7.88L67.10 7.88Q67.05 7.59 66.92 6.82L66.92 6.82L66.92 6.82Q66.74 5.71 66.55 5.09L66.55 5.09L66.55 5.09Q66.36 4.47 65.91 4.00L65.91 4.00L65.91 4.00Q65.72 3.81 65.48 3.77L65.48 3.77L65.48 3.77Q65.24 3.72 64.71 3.72L64.71 3.72Z"></path></g><!----><g data-v-423bf9ae="" id="471a0a5d-6c53-495f-8f89-0b0a9116bdb5" transform="matrix(1.1314595887010575,0,0,1.1314595887010575,0.4277543148329883,-11.344535033051429)" stroke="none" fill="black"><path d="M99.012 19.576c-1.858 1.701-4.276 2.984-6.978 2.758l-2.878.015c-1.124-.059-3.511-.364-5.395-.651-.597-.09-.678-.371-.631-.443.264-.425.345-.543.416-.632a36.77 36.77 0 0 0 2.829-.07c2.22-.146 4.309-.554 5.956-1.537-.006.006-.01.015-.013.021.09-.059.191-.118.298-.187.425-.265.936-.599 1.209-.871.77-.772.248-1.254-.578-.544-.716.619-3.014 1.504-4.82 1.738-.379.051-.535.015-.512-.347.031-.366.244-1.398.196-1.754-.044-.357-.334-.314-.429.079-.152.626-.36.932-.943 1.588-.293.326-.443.424-1.132.434-.281.004-.678-.015-1.112-.047.908-1.406 1.547-2.743 1.909-3.848.323-1.004-.339-1.121-.655-.36-.352.826-1.513 2.558-2.831 4.054-.5-.06-.959-.127-1.265-.192-.57-.119-.414-.576-.09-.938 1.568-1.775 2.159-3.961 1.805-6.108-.18-1.106-.852-.628-.884-.091-.137 2.483-.653 3.731-2.447 5.401-.39.363-.801.751-1.668.81-2.326.157-5.712.568-7.515 1.497-.46.241-.619.173-.554-.32.09-.654-.53-4.489-.657-5.549-.127-1.06-.081-1.889.335-2.45.422-.565-.41-1.16-.874-.542-.464.622-.599 1.281-.666 2.409-.064 1.13.322 6.18-.347 8.539-.712 2.508-1.315 5.196-1.386 8.09-.072-.38-.154-.775-.256-1.185a46.158 46.158 0 0 0-.289-4.668c-.616-5.539-2.764-12.729-3.867-12.605-.7.077-.358 4.729-.414 7.475-1.561-2.096-5.298-7.962-6.265-7.531-1.594.709 1.159 10.136 3.425 15.229 1.132 2.542 2.479 4.7 3.742 6.135-.26.259-.526.513-.801.757.017.015.04.032.054.046l.192-.135-1.294 2.927.086.025a4.363 4.363 0 0 1-.07.527c-.065.346-.058.504-.113.797a4.71 4.71 0 0 0-.073.162c-.01.106-.961 1.41-1.318 1.95-2.144 1.697-5.195 3.274-8.674 4.691l-.003-.003-.231.09-16.096 4.896c-.097.02-.199.047-.297.068.037-.005.071-.007.106-.012l-.254.077a125.34 125.34 0 0 1-5.907 1.213c-.429.123-.86.244-1.281.379-7.395 2.375-12.299 6.503-13.022 10.639.003.127.016.25.041.362l-.015 1.878c.024.117.049.236.082.354l.062.218-.002.243c-.137.833.339 1.666.744 2.622l.064.032.064.172-.027-.09c.772 1.996.88 4.726-5.098 8.867l-.072.06-3.021 1.753-.536.714c-.341.139-.328.418-.568.754l-.583.779c-.012.009-.031.014-.045.025-.02.014-.032.029-.051.042-.049.036-.098.072-.134.111-.016.018-.026.038-.039.061-.026.034-.054.067-.069.105-.012.02-.013.046-.019.068-.012.034-.024.067-.027.103l-2.634 3.507a.858.858 0 0 0-.221.04.482.482 0 0 0-.19.099c-.356.341-.679.706-1.094 1.148-.136 1.371.02.135.131.166a.438.438 0 0 0 .171.005.772.772 0 0 0 .131-.028l-.65.866L0 88.656c.074-.062.295-.17.58-.297-.226.703-.432 1.344-.26 1.347.355.009.73.113 1.057.038.71-.166 1.421-.371 2.083-.648.22-.092.408-.238.593-.392.411-.049.786-.324 1.188-1.098.033-.036 0-.086-.072-.148a.381.381 0 0 1 .044-.139c.03.02.062.04.085.06a10.567 10.567 0 0 1-.02-.168l-.001-.002c.226-.366.714-.867.517-.955.123-.362.25-.767.381-1.237a55.232 55.232 0 0 1 7.412-4.134c.024.011 4.194-2.54 4.198-2.542l.129-.038a52.429 52.429 0 0 1 2.976-1.887c.644-.408 1.44-.474 2.33-.891a66.37 66.37 0 0 0 1.168-.567l.065-.037a3.99 3.99 0 0 0 .789-.514l.073-.067c.521-.475.764-1.033 1.001-1.724l.82-1.408c.046-.119.129-.246.231-.377a17.503 17.503 0 0 1 1.61-1.377c1.894-1.432 4.225-2.626 6.904-3.452 3.972-1.232 8.294-1.423 12.328-.881 1.955.35 1.358.305 2.067.462.762.169 1.542.303 2.341.397l2.056.15c2.877.09 5.869-.313 8.698-1.277 2.005-.685 3.75-1.594 5.207-2.655.287-.24.672-.578 1.256-.796.81-.298 1.426-.205 1.821-.072.531.206 1.268 1.027 7.274-.37.27-.095 1.45-.107 2.877-.079.938.017 1.982.054 2.944.094l-.002.015.743.017c.193.01.385.018.563.028v-.015c.962.029 1.938.071 2.767.111v.005c1.109.071 1.909.134 1.959.159.541-.006 1.091-.01 1.639-.015.009.024.108.032.208.026.015.015.031.021.042.006.083.013.168.023.25.038l.02.004c.113.124.279.141.504.272.26.048.491.108.683.134 1.224.321 3.493.855 3.604.855.207 0 .286.023.411-.069.988-.272.828-.961.535-1.868a6.023 6.023 0 0 0-.398-.962c-.208-.393-.304-.852-1.026-.911-.348-.029-.647-.3-.988-.422a74.12 74.12 0 0 0-1.068-.376c-.281-.158-.352-.18-.429-.206-.799-.271-.857.139-1.79-.742-.407-.385-1.899-.682-3.717-.912l.001-.026a46.253 46.253 0 0 0-3.641-.228 47.779 47.779 0 0 0-3.805-.185c-.006-.017-.169-.018-.187-.014-.148.04-.373-.019-.472-.013-.377.029-.494.003-.834.005-.035 0-.068-.002-.104-.003-.383-.009-.811.026-1.15-.035-.622-.029-1.109-.165-1.671-.404-.639-.274-1.155-.555-1.142-.985-.004-.015-.012-.033-.015-.05a.456.456 0 0 1-.008-.142 4.783 4.783 0 0 0-.491-2.019c-.044-.08-.087-.142-.124-.2a33.876 33.876 0 0 0-.43-.775 6.533 6.533 0 0 1-.129-.217c0-.038-.002-.074.014-.107l-.019.102c-.466-.764-.948-1.631-1.219-3.02-.031-.164.148-.685.353-1.123.31-.473.631-.967.92-1.355l.135-.026c2.118-.772 4.673-1.544 6.468-2.45.56-.379.352-.1 1.006-.603.07-.057.024-.236.087-.252.806-.208.679-.839.777-1.45.206-.192.371-.381.504-.561-.001.007-.004.013.012.015 0-.013.009-.029.01-.043.062-.408.4-.801.437-1.147l.009-.015c-.108-.099-.327-.318-.611-.598l-1.554-1.426c-.375-.36-.72-.68-.926-.845l-.166-.151c.017.026.065.09.046.072-.937-.829-1.563-1.557-2.262-2.235-.514-.498-.74-1.232-1.629-1.398-.106-.02-.202-.151-.302-.23-.262-.206-.5-.525-.785-.602-.185-.048-.371-.102-.554-.153l-3.984-.706c1.275-1.685 3.551-3.269 4.949-4.232 2.505-1.729 7.073-2.883 11.523-2.234 3.466.502 9.653-.783 11.577-4.114.319-.559.024-1.202-.862-.393zm-18.764 1.689c-2.302 1.365-5.981 3.392-8.575 5.85-.975.922-1.798 1.908-2.335 2.942l-.161-.03c-.1-1.838.062-3.688.379-4.612.576-1.67 1.78-3.503 3.692-4.381a5.793 5.793 0 0 1 1.384-.396.3.3 0 0 0 .043-.01c1.783-.257 4.09-.144 6.52-.06h-.004c-.021.02-.008.011.004 0h.005l.185.005-1.137.692z"></path></g><!----></svg>
