<svg data-v-423bf9ae="" xmlns="http://www.w3.org/2000/svg" viewBox="0 0 75.42966091355602 60" class="icon"><!----><!----><!----><!----><g data-v-423bf9ae="" id="6b839784-8ea9-4dac-821b-8b87e43e71b6" transform="matrix(0.7543063924673716,0,0,0.7543063924673716,-5.821843984676889e-8,-7.714853710693951)" stroke="none" fill="white"><path d="M99.012 19.576c-1.858 1.701-4.276 2.984-6.978 2.758l-2.878.015c-1.124-.059-3.511-.364-5.395-.651-.597-.09-.678-.371-.631-.443.264-.425.345-.543.416-.632a36.77 36.77 0 0 0 2.829-.07c2.22-.146 4.309-.554 5.956-1.537-.006.006-.01.015-.013.021.09-.059.191-.118.298-.187.425-.265.936-.599 1.209-.871.77-.772.248-1.254-.578-.544-.716.619-3.014 1.504-4.82 1.738-.379.051-.535.015-.512-.347.031-.366.244-1.398.196-1.754-.044-.357-.334-.314-.429.079-.152.626-.36.932-.943 1.588-.293.326-.443.424-1.132.434-.281.004-.678-.015-1.112-.047.908-1.406 1.547-2.743 1.909-3.848.323-1.004-.339-1.121-.655-.36-.352.826-1.513 2.558-2.831 4.054-.5-.06-.959-.127-1.265-.192-.57-.119-.414-.576-.09-.938 1.568-1.775 2.159-3.961 1.805-6.108-.18-1.106-.852-.628-.884-.091-.137 2.483-.653 3.731-2.447 5.401-.39.363-.801.751-1.668.81-2.326.157-5.712.568-7.515 1.497-.46.241-.619.173-.554-.32.09-.654-.53-4.489-.657-5.549-.127-1.06-.081-1.889.335-2.45.422-.565-.41-1.16-.874-.542-.464.622-.599 1.281-.666 2.409-.064 1.13.322 6.18-.347 8.539-.712 2.508-1.315 5.196-1.386 8.09-.072-.38-.154-.775-.256-1.185a46.158 46.158 0 0 0-.289-4.668c-.616-5.539-2.764-12.729-3.867-12.605-.7.077-.358 4.729-.414 7.475-1.561-2.096-5.298-7.962-6.265-7.531-1.594.709 1.159 10.136 3.425 15.229 1.132 2.542 2.479 4.7 3.742 6.135-.26.259-.526.513-.801.757.017.015.04.032.054.046l.192-.135-1.294 2.927.086.025a4.363 4.363 0 0 1-.07.527c-.065.346-.058.504-.113.797a4.71 4.71 0 0 0-.073.162c-.01.106-.961 1.41-1.318 1.95-2.144 1.697-5.195 3.274-8.674 4.691l-.003-.003-.231.09-16.096 4.896c-.097.02-.199.047-.297.068.037-.005.071-.007.106-.012l-.254.077a125.34 125.34 0 0 1-5.907 1.213c-.429.123-.86.244-1.281.379-7.395 2.375-12.299 6.503-13.022 10.639.003.127.016.25.041.362l-.015 1.878c.024.117.049.236.082.354l.062.218-.002.243c-.137.833.339 1.666.744 2.622l.064.032.064.172-.027-.09c.772 1.996.88 4.726-5.098 8.867l-.072.06-3.021 1.753-.536.714c-.341.139-.328.418-.568.754l-.583.779c-.012.009-.031.014-.045.025-.02.014-.032.029-.051.042-.049.036-.098.072-.134.111-.016.018-.026.038-.039.061-.026.034-.054.067-.069.105-.012.02-.013.046-.019.068-.012.034-.024.067-.027.103l-2.634 3.507a.858.858 0 0 0-.221.04.482.482 0 0 0-.19.099c-.356.341-.679.706-1.094 1.148-.136 1.371.02.135.131.166a.438.438 0 0 0 .171.005.772.772 0 0 0 .131-.028l-.65.866L0 88.656c.074-.062.295-.17.58-.297-.226.703-.432 1.344-.26 1.347.355.009.73.113 1.057.038.71-.166 1.421-.371 2.083-.648.22-.092.408-.238.593-.392.411-.049.786-.324 1.188-1.098.033-.036 0-.086-.072-.148a.381.381 0 0 1 .044-.139c.03.02.062.04.085.06a10.567 10.567 0 0 1-.02-.168l-.001-.002c.226-.366.714-.867.517-.955.123-.362.25-.767.381-1.237a55.232 55.232 0 0 1 7.412-4.134c.024.011 4.194-2.54 4.198-2.542l.129-.038a52.429 52.429 0 0 1 2.976-1.887c.644-.408 1.44-.474 2.33-.891a66.37 66.37 0 0 0 1.168-.567l.065-.037a3.99 3.99 0 0 0 .789-.514l.073-.067c.521-.475.764-1.033 1.001-1.724l.82-1.408c.046-.119.129-.246.231-.377a17.503 17.503 0 0 1 1.61-1.377c1.894-1.432 4.225-2.626 6.904-3.452 3.972-1.232 8.294-1.423 12.328-.881 1.955.35 1.358.305 2.067.462.762.169 1.542.303 2.341.397l2.056.15c2.877.09 5.869-.313 8.698-1.277 2.005-.685 3.75-1.594 5.207-2.655.287-.24.672-.578 1.256-.796.81-.298 1.426-.205 1.821-.072.531.206 1.268 1.027 7.274-.37.27-.095 1.45-.107 2.877-.079.938.017 1.982.054 2.944.094l-.002.015.743.017c.193.01.385.018.563.028v-.015c.962.029 1.938.071 2.767.111v.005c1.109.071 1.909.134 1.959.159.541-.006 1.091-.01 1.639-.015.009.024.108.032.208.026.015.015.031.021.042.006.083.013.168.023.25.038l.02.004c.113.124.279.141.504.272.26.048.491.108.683.134 1.224.321 3.493.855 3.604.855.207 0 .286.023.411-.069.988-.272.828-.961.535-1.868a6.023 6.023 0 0 0-.398-.962c-.208-.393-.304-.852-1.026-.911-.348-.029-.647-.3-.988-.422a74.12 74.12 0 0 0-1.068-.376c-.281-.158-.352-.18-.429-.206-.799-.271-.857.139-1.79-.742-.407-.385-1.899-.682-3.717-.912l.001-.026a46.253 46.253 0 0 0-3.641-.228 47.779 47.779 0 0 0-3.805-.185c-.006-.017-.169-.018-.187-.014-.148.04-.373-.019-.472-.013-.377.029-.494.003-.834.005-.035 0-.068-.002-.104-.003-.383-.009-.811.026-1.15-.035-.622-.029-1.109-.165-1.671-.404-.639-.274-1.155-.555-1.142-.985-.004-.015-.012-.033-.015-.05a.456.456 0 0 1-.008-.142 4.783 4.783 0 0 0-.491-2.019c-.044-.08-.087-.142-.124-.2a33.876 33.876 0 0 0-.43-.775 6.533 6.533 0 0 1-.129-.217c0-.038-.002-.074.014-.107l-.019.102c-.466-.764-.948-1.631-1.219-3.02-.031-.164.148-.685.353-1.123.31-.473.631-.967.92-1.355l.135-.026c2.118-.772 4.673-1.544 6.468-2.45.56-.379.352-.1 1.006-.603.07-.057.024-.236.087-.252.806-.208.679-.839.777-1.45.206-.192.371-.381.504-.561-.001.007-.004.013.012.015 0-.013.009-.029.01-.043.062-.408.4-.801.437-1.147l.009-.015c-.108-.099-.327-.318-.611-.598l-1.554-1.426c-.375-.36-.72-.68-.926-.845l-.166-.151c.017.026.065.09.046.072-.937-.829-1.563-1.557-2.262-2.235-.514-.498-.74-1.232-1.629-1.398-.106-.02-.202-.151-.302-.23-.262-.206-.5-.525-.785-.602-.185-.048-.371-.102-.554-.153l-3.984-.706c1.275-1.685 3.551-3.269 4.949-4.232 2.505-1.729 7.073-2.883 11.523-2.234 3.466.502 9.653-.783 11.577-4.114.319-.559.024-1.202-.862-.393zm-18.764 1.689c-2.302 1.365-5.981 3.392-8.575 5.85-.975.922-1.798 1.908-2.335 2.942l-.161-.03c-.1-1.838.062-3.688.379-4.612.576-1.67 1.78-3.503 3.692-4.381a5.793 5.793 0 0 1 1.384-.396.3.3 0 0 0 .043-.01c1.783-.257 4.09-.144 6.52-.06h-.004c-.021.02-.008.011.004 0h.005l.185.005-1.137.692z"></path></g><!----></svg>