<svg width="207.85000610351562px" height="108.8250030517578px" xmlns="http://www.w3.org/2000/svg" viewBox="146.0749969482422 20.587498474121098 207.85000610351562 108.8250030517578" style="background: none;" preserveAspectRatio="xMidYMid"><defs><filter id="editing-extrusion" x="-100%" y="-100%" width="300%" height="300%"><feFlood result="color1" flood-color="#444444"></feFlood><feConvolveMatrix order="8,8" divisor="1" kernelMatrix="1 0 0 0 0 0 0 0 0 1 0 0 0 0 0 0 0 0 1 0 0 0 0 0 0 0 0 1 0 0 0 0 0 0 0 0 1 0 0 0 0 0 0 0 0 1 0 0 0 0 0 0 0 0 1 0 0 0 0 0 0 0 0 1" in="SourceAlpha" result="extrude"></feConvolveMatrix><feComposite in="color1" in2="extrude" result="comp-extrude" operator="in"></feComposite><feOffset dx="4" dy="4" in="comp-extrude" result="offset-extrude"></feOffset><feMerge><feMergeNode in="offset-extrude"></feMergeNode><feMergeNode in="SourceGraphic"></feMergeNode></feMerge></filter></defs><g filter="url(#editing-extrusion)"><g transform="translate(182.72937846183777, 95.71999931335449)"><path d="M25.54 1.12L25.54 1.12L25.54 1.12Q18.37 1.12 17.70-9.07L17.70-9.07L8.06-9.07L8.06-9.07Q6.94-6.50 6.16-4.26L6.16-4.26L4.70 0L-3.14 0L14.50-36.96L26.54-36.96L28.90-9.74L28.90-9.74Q29.46-3.86 31.70-2.13L31.70-2.13L31.70-2.13Q30.07 1.12 25.54 1.12ZM12.88-20.27L9.80-13.16L17.53-13.16L16.86-27.55L16.86-29.06L12.88-20.27ZM56.78-32.48L56.78-32.48L56.78-32.48Q57.57-33.82 57.57-35.28L57.57-35.28L57.57-35.28Q57.57-37.86 56-37.86L56-37.86L56-37.86Q53.59-37.86 52.58-32.93L52.58-32.93L51.74-28.56L56.84-28.56L56.50-26.04L51.24-26.04L46.20 0L34.89 1.12L40.26-26.04L36.29-26.04L36.79-28.56L40.71-28.56L41.89-32.98L41.89-32.98Q42.90-37.07 47.21-38.98L47.21-38.98L47.21-38.98Q50.34-40.32 55.61-40.32L55.61-40.32L55.61-40.32Q60.87-40.32 63.22-38.98L63.22-38.98L63.22-38.98Q65.58-37.63 65.58-35.84L65.58-35.84L65.58-35.84Q65.58-34.05 64.18-32.93L64.18-32.93L64.18-32.93Q62.78-31.81 61.21-31.81L61.21-31.81L61.21-31.81Q58.13-31.81 56.78-32.48ZM57.23-5.60L57.23-5.60L57.23-5.60Q57.23-7.11 58.02-10.92L58.02-10.92L60.98-26.04L57.68-26.04L57.90-27.72L57.90-27.72Q64.62-29.74 71.12-34.66L71.12-34.66L73.81-34.66L72.46-28.56L76.83-28.56L76.33-26.04L72.02-26.04L69.16-10.92L69.16-10.92Q68.43-7.45 68.43-6.27L68.43-6.27L68.43-6.27Q68.43-3.58 70.78-3.02L70.78-3.02L70.78-3.02Q70.22-1.12 68.21 0L68.21 0L68.21 0Q66.19 1.12 63.34 1.12L63.34 1.12L63.34 1.12Q60.48 1.12 58.86-0.67L58.86-0.67L58.86-0.67Q57.23-2.46 57.23-5.60ZM99.01-9.46L99.01-9.46L99.01-9.46Q100.41-8.51 100.41-6.41L100.41-6.41L100.41-6.41Q100.41-4.31 99.34-2.97L99.34-2.97L99.34-2.97Q98.28-1.62 96.54-0.73L96.54-0.73L96.54-0.73Q92.96 1.12 89.10 1.12L89.10 1.12L89.10 1.12Q85.23 1.12 82.96 0.28L82.96 0.28L82.96 0.28Q80.70-0.56 79.18-2.13L79.18-2.13L79.18-2.13Q76.22-5.10 76.22-10.53L76.22-10.53L76.22-10.53Q76.22-18.98 80.81-24.14L80.81-24.14L80.81-24.14Q85.74-29.68 94.30-29.68L94.30-29.68L94.30-29.68Q99.62-29.68 102.26-27.44L102.26-27.44L102.26-27.44Q104.22-25.76 104.22-23.02L104.22-23.02L104.22-23.02Q104.22-13.16 87.19-13.16L87.19-13.16L87.19-13.16Q86.97-11.70 86.97-10.47L86.97-10.47L86.97-10.47Q86.97-7.90 88.12-6.92L88.12-6.92L88.12-6.92Q89.26-5.94 91.39-5.94L91.39-5.94L91.39-5.94Q93.52-5.94 95.79-6.92L95.79-6.92L95.79-6.92Q98.06-7.90 99.01-9.46ZM87.58-15.57L87.58-15.57L87.58-15.57Q91.56-15.57 93.86-18.03L93.86-18.03L93.86-18.03Q96.15-20.38 96.15-24.14L96.15-24.14L96.15-24.14Q96.15-25.42 95.68-26.12L95.68-26.12L95.68-26.12Q95.20-26.82 94.25-26.82L94.25-26.82L94.25-26.82Q93.30-26.82 92.48-26.46L92.48-26.46L92.48-26.46Q91.67-26.10 90.83-24.86L90.83-24.86L90.83-24.86Q88.76-22.06 87.58-15.57ZM123.65-15.74L123.65-15.74L123.65-15.74Q125.66-19.32 125.66-22.96L125.66-22.96L125.66-22.96Q125.66-25.37 123.93-25.37L123.93-25.37L123.93-25.37Q122.58-25.37 121.18-23.07L121.18-23.07L121.18-23.07Q119.73-20.78 119.28-17.81L119.28-17.81L116.37 0L104.78 1.12L110.49-28.56L119.73-29.68L118.72-24.02L118.72-24.02Q121.46-29.68 127.62-29.68L127.62-29.68L127.62-29.68Q130.87-29.68 132.64-28L132.64-28L132.64-28Q134.40-26.32 134.40-22.88L134.40-22.88L134.40-22.88Q134.40-19.43 132.13-17.25L132.13-17.25L132.13-17.25Q129.86-15.06 126-15.06L126-15.06L126-15.06Q124.32-15.06 123.65-15.74Z" fill="#ccc"></path></g></g><style>text {
  font-size: 64px;
  font-family: Arial Black;
  dominant-baseline: central;
  text-anchor: middle;
}</style></svg>