<svg width="329.9737548828125px" height="108.8250030517578px" xmlns="http://www.w3.org/2000/svg" viewBox="85.01312255859375 20.587498474121098 329.9737548828125 108.8250030517578" style="background: rgba(0, 0, 0, 0);" preserveAspectRatio="xMidYMid"><defs><filter id="editing-vr"><feFlood flood-color="#f00" flood-opacity="0.7" result="c1"></feFlood><feFlood flood-color="#00f" flood-opacity="0.7" result="c3"></feFlood><feComposite operator="in" in="c1" in2="SourceAlpha" result="text-c1"></feComposite><feComposite operator="in" in="c3" in2="SourceAlpha" result="text-c3"></feComposite><feOffset in="text-c1" dx="5" dy="-1" result="text1"></feOffset><feOffset in="text-c3" dx="-5" dy="1" result="text3"></feOffset><feBlend in="SourceGraphic" in2="text1" mode="multiply" result="text4"></feBlend><feBlend in="text4" in2="text3" mode="multiply"></feBlend></filter></defs><g filter="url(#editing-vr)"><g transform="translate(136.65031066536903, 95.71999931335449)"><path d="M26.43-29.68L26.43-29.68L26.43-29.68Q21.90-29.68 18.59-31.19L18.59-31.19L16.80-22.12L27.61-22.12L27.61-22.12Q27.61-19.15 26.12-17.28L26.12-17.28L26.12-17.28Q24.64-15.40 21.95-15.40L21.95-15.40L21.95-15.40Q19.04-15.40 16.35-16.46L16.35-16.46L16.35-16.46Q15.79-16.69 15.74-16.74L15.74-16.74L12.54 0L0.34 0L7.45-36.96L32.42-36.96L32.42-36.96Q32.42-33.54 30.83-31.61L30.83-31.61L30.83-31.61Q29.23-29.68 26.43-29.68ZM44.41-3.08L44.41-3.08L44.41-3.08Q42.67 1.12 37.13 1.12L37.13 1.12L37.13 1.12Q34.33 1.12 32.54-0.84L32.54-0.84L32.54-0.84Q31.08-2.46 31.08-4.31L31.08-4.31L31.08-4.31Q31.08-8.51 33.04-17.70L33.04-17.70L37.13-39.20L48.50-40.32L43.06-11.98L43.06-11.98Q42.11-7.84 42.11-6.38L42.11-6.38L42.11-6.38Q42.11-3.19 44.41-3.08ZM51.60-1.68L51.60-1.68L51.60-1.68Q50.29-3.14 49.70-5.43L49.70-5.43L49.70-5.43Q49.11-7.73 49.11-11.48L49.11-11.48L49.11-11.48Q49.11-15.23 50.40-18.65L50.40-18.65L50.40-18.65Q51.69-22.06 54.04-24.53L54.04-24.53L54.04-24.53Q58.86-29.68 66.81-29.68L66.81-29.68L66.81-29.68Q69.66-29.68 71.74-28.73L71.74-28.73L81.31-29.68L77.17-7.84L77.17-7.84Q77-7.17 77-5.94L77-5.94L77-5.94Q77-4.70 77.76-3.92L77.76-3.92L77.76-3.92Q78.51-3.14 79.63-3.02L79.63-3.02L79.63-3.02Q79.07-1.12 77.03 0L77.03 0L77.03 0Q74.98 1.12 72.69 1.12L72.69 1.12L72.69 1.12Q70.39 1.12 68.85 0.25L68.85 0.25L68.85 0.25Q67.31-0.62 66.86-2.07L66.86-2.07L66.86-2.07Q65.97-0.67 64.06 0.22L64.06 0.22L64.06 0.22Q62.16 1.12 59.61 1.12L59.61 1.12L59.61 1.12Q57.06 1.12 54.99 0.45L54.99 0.45L54.99 0.45Q52.92-0.22 51.60-1.68ZM63.42-24.42L63.42-24.42L63.42-24.42Q62.78-23.41 62.22-21.70L62.22-21.70L62.22-21.70Q61.66-19.99 60.73-15.43L60.73-15.43L60.73-15.43Q59.81-10.86 59.81-7.62L59.81-7.62L59.81-7.62Q59.81-4.37 60.31-3.42L60.31-3.42L60.31-3.42Q60.82-2.46 61.71-2.46L61.71-2.46L61.71-2.46Q63.50-2.46 64.82-4.17L64.82-4.17L64.82-4.17Q66.14-5.88 66.64-8.90L66.64-8.90L69.61-25.31L69.61-25.31Q68.43-26.32 67.06-26.32L67.06-26.32L67.06-26.32Q65.69-26.32 64.88-25.87L64.88-25.87L64.88-25.87Q64.06-25.42 63.42-24.42ZM85.23-5.60L85.23-5.60L85.23-5.60Q85.23-7.11 86.02-10.92L86.02-10.92L88.98-26.04L85.68-26.04L85.90-27.72L85.90-27.72Q92.62-29.74 99.12-34.66L99.12-34.66L101.81-34.66L100.46-28.56L104.83-28.56L104.33-26.04L100.02-26.04L97.16-10.92L97.16-10.92Q96.43-7.45 96.43-6.27L96.43-6.27L96.43-6.27Q96.43-3.58 98.78-3.02L98.78-3.02L98.78-3.02Q98.22-1.12 96.21 0L96.21 0L96.21 0Q94.19 1.12 91.34 1.12L91.34 1.12L91.34 1.12Q88.48 1.12 86.86-0.67L86.86-0.67L86.86-0.67Q85.23-2.46 85.23-5.60ZM117.94-3.08L117.94-3.08L117.94-3.08Q116.20 1.12 110.66 1.12L110.66 1.12L110.66 1.12Q107.86 1.12 106.06-0.84L106.06-0.84L106.06-0.84Q104.61-2.46 104.61-4.31L104.61-4.31L104.61-4.31Q104.61-8.51 106.57-17.70L106.57-17.70L110.66-39.20L122.02-40.32L116.59-11.98L116.59-11.98Q115.64-7.84 115.64-6.38L115.64-6.38L115.64-6.38Q115.64-3.19 117.94-3.08ZM125.13-1.68L125.13-1.68L125.13-1.68Q123.82-3.14 123.23-5.43L123.23-5.43L123.23-5.43Q122.64-7.73 122.64-11.48L122.64-11.48L122.64-11.48Q122.64-15.23 123.93-18.65L123.93-18.65L123.93-18.65Q125.22-22.06 127.57-24.53L127.57-24.53L127.57-24.53Q132.38-29.68 140.34-29.68L140.34-29.68L140.34-29.68Q143.19-29.68 145.26-28.73L145.26-28.73L154.84-29.68L150.70-7.84L150.70-7.84Q150.53-7.17 150.53-5.94L150.53-5.94L150.53-5.94Q150.53-4.70 151.28-3.92L151.28-3.92L151.28-3.92Q152.04-3.14 153.16-3.02L153.16-3.02L153.16-3.02Q152.60-1.12 150.56 0L150.56 0L150.56 0Q148.51 1.12 146.22 1.12L146.22 1.12L146.22 1.12Q143.92 1.12 142.38 0.25L142.38 0.25L142.38 0.25Q140.84-0.62 140.39-2.07L140.39-2.07L140.39-2.07Q139.50-0.67 137.59 0.22L137.59 0.22L137.59 0.22Q135.69 1.12 133.14 1.12L133.14 1.12L133.14 1.12Q130.59 1.12 128.52 0.45L128.52 0.45L128.52 0.45Q126.45-0.22 125.13-1.68ZM136.95-24.42L136.95-24.42L136.95-24.42Q136.30-23.41 135.74-21.70L135.74-21.70L135.74-21.70Q135.18-19.99 134.26-15.43L134.26-15.43L134.26-15.43Q133.34-10.86 133.34-7.62L133.34-7.62L133.34-7.62Q133.34-4.37 133.84-3.42L133.84-3.42L133.84-3.42Q134.34-2.46 135.24-2.46L135.24-2.46L135.24-2.46Q137.03-2.46 138.35-4.17L138.35-4.17L138.35-4.17Q139.66-5.88 140.17-8.90L140.17-8.90L143.14-25.31L143.14-25.31Q141.96-26.32 140.59-26.32L140.59-26.32L140.59-26.32Q139.22-26.32 138.40-25.87L138.40-25.87L138.40-25.87Q137.59-25.42 136.95-24.42ZM181.55 1.12L181.55 1.12L181.55 1.12Q174.78 1.12 174.78-4.14L174.78-4.14L174.78-4.14Q174.83-5.60 175.28-8.06L175.28-8.06L176.29-13.22L176.29-13.22Q177.80-20.50 177.80-22.12L177.80-22.12L177.80-22.12Q177.80-25.37 175.90-25.37L175.90-25.37L175.90-25.37Q172.70-25.37 171.02-17.02L171.02-17.02L167.72 0L156.46 1.12L162.29-28.62L171.47-29.68L170.58-24.19L170.58-24.19Q173.21-29.68 181.27-29.68L181.27-29.68L181.27-29.68Q185.19-29.68 186.84-28.03L186.84-28.03L186.84-28.03Q188.50-26.38 188.50-22.68L188.50-22.68L188.50-22.68Q188.50-19.21 186.70-11.09L186.70-11.09L186.70-11.09Q185.86-7.45 185.86-6.08L185.86-6.08L185.86-6.08Q185.86-4.70 186.62-3.92L186.62-3.92L186.62-3.92Q187.38-3.14 188.50-3.02L188.50-3.02L188.50-3.02Q187.94-1.12 186.00 0L186.00 0L186.00 0Q184.07 1.12 181.55 1.12ZM210.62-29.68L210.62-29.68L210.62-29.68Q212.63-29.68 214.20-29.23L214.20-29.23L214.20-29.23Q214.26-29.46 214.37-30.07L214.37-30.07L214.65-31.81L214.65-31.81Q214.87-32.93 215.21-34.78L215.21-34.78L216.10-39.20L227.25-40.32L221.03-7.84L221.03-7.84Q220.98-7.50 220.98-6.94L220.98-6.94L220.98-6.05L220.98-6.05Q220.98-4.82 221.59-3.89L221.59-3.89L221.59-3.89Q222.21-2.97 223.22-2.97L223.22-2.97L223.22-2.97Q222.10-0.34 218.68 0.78L218.68 0.78L218.68 0.78Q217.50 1.12 215.85 1.12L215.85 1.12L215.85 1.12Q214.20 1.12 212.69 0.25L212.69 0.25L212.69 0.25Q211.18-0.62 210.73-2.07L210.73-2.07L210.73-2.07Q209.83-0.62 208.04 0.25L208.04 0.25L208.04 0.25Q206.25 1.12 203.64 1.12L203.64 1.12L203.64 1.12Q201.04 1.12 198.88 0.45L198.88 0.45L198.88 0.45Q196.73-0.22 195.38-1.68L195.38-1.68L195.38-1.68Q192.92-4.54 192.92-11.03L192.92-11.03L192.92-11.03Q192.92-19.43 197.85-24.53L197.85-24.53L197.85-24.53Q202.78-29.68 210.62-29.68ZM210.22-26.32L210.22-26.32L210.22-26.32Q208.15-26.32 207.03-24.08L207.03-24.08L207.03-24.08Q205.91-21.84 204.76-16.30L204.76-16.30L204.76-16.30Q203.62-10.75 203.62-5.77L203.62-5.77L203.62-5.77Q203.62-2.35 205.63-2.35L205.63-2.35L205.63-2.35Q207.42-2.35 208.68-4.14L208.68-4.14L208.68-4.14Q209.94-5.94 210.45-8.90L210.45-8.90L213.47-25.31L213.47-25.31Q212.30-26.32 210.22-26.32Z" fill="#444"></path></g></g><style>text {
  font-size: 64px;
  font-family: Arial Black;
  dominant-baseline: central;
  text-anchor: middle;
}</style></svg>